<?xml version="1.0" standalone="no"?>
<!DOCTYPE svg PUBLIC "-//W3C//DTD SVG 20010904//EN"
 "http://www.w3.org/TR/2001/REC-SVG-20010904/DTD/svg10.dtd">
<svg version="1.0" xmlns="http://www.w3.org/2000/svg"
 width="1024.000000pt" height="1024.000000pt" viewBox="0 0 1024.000000 1024.000000"
 preserveAspectRatio="xMidYMid meet">
<metadata>
Created by potrace 1.14, written by Peter Selinger 2001-2017
</metadata>
<g transform="translate(0.000000,1024.000000) scale(0.100000,-0.100000)"
fill="#000000" stroke="none">
<path d="M3070 7760 c-229 -21 -407 -172 -486 -410 -18 -52 -19 -121 -22
-1185 -2 -846 0 -1136 9 -1158 24 -57 24 -57 381 -57 l328 0 0 341 c0 231 4
347 11 362 25 49 47 57 167 57 125 0 166 -12 182 -56 6 -14 10 -93 10 -175 l0
-149 295 0 295 0 0 160 0 160 28 30 c15 16 41 31 57 34 17 2 166 5 333 5 l302
1 0 200 0 200 -149 0 c-82 0 -157 3 -166 6 -36 14 -45 57 -45 211 0 164 5 179
62 209 22 12 46 15 80 11 26 -3 86 -3 133 0 l85 6 0 208 0 209 -151 0 -151 0
-29 29 c-29 29 -29 30 -29 153 0 139 8 164 60 191 32 16 64 17 323 15 l289 -3
29 -33 29 -32 0 -1146 0 -1146 -29 -29 c-29 -29 -30 -29 -151 -29 -183 0 -190
9 -190 236 l0 144 -174 0 -175 0 -3 -161 -3 -161 -33 -29 -32 -29 -445 0 -445
0 0 -160 0 -160 -29 -32 -29 -33 -493 -3 -492 -4 -24 -24 -24 -24 4 -907 c2
-819 4 -913 20 -956 34 -99 81 -172 162 -252 89 -90 171 -136 269 -154 42 -8
748 -11 2380 -11 2008 0 2330 2 2391 15 196 41 354 189 418 390 l22 70 0 2300
0 2300 -26 67 c-15 37 -42 93 -60 124 -75 125 -251 244 -389 264 -75 11 -4563
11 -4680 0z m1141 -428 l29 -32 0 -565 c0 -416 -3 -571 -12 -590 -25 -56 -19
-55 -635 -55 -624 0 -596 -3 -628 60 -13 25 -15 111 -15 584 l0 554 26 31 c14
17 40 35 57 40 18 5 270 9 590 8 l559 -2 29 -33z m1816 5 l28 -27 3 -738 c2
-511 0 -748 -8 -775 -17 -58 -41 -68 -172 -69 -72 0 -123 4 -137 12 -51 27
-51 25 -51 803 0 513 3 733 11 756 21 59 58 72 186 69 108 -3 114 -4 140 -31z
m1739 17 c18 -9 43 -31 54 -49 20 -32 20 -44 18 -594 l-3 -561 -28 -27 -27
-28 -633 -2 c-681 -3 -660 -5 -701 50 -21 28 -21 36 -21 575 0 607 -1 598 64
632 34 18 66 19 639 20 535 0 608 -2 638 -16z m50 -2057 c23 -27 24 -35 24
-158 l0 -131 -29 -29 -29 -29 -326 0 -326 0 0 -720 c0 -769 0 -773 -48 -799
-12 -6 -80 -11 -161 -11 l-141 0 0 -349 c0 -367 -3 -398 -45 -425 -35 -23
-231 -23 -264 0 -50 36 -51 44 -51 619 l0 535 -158 0 -158 0 -27 28 c-26 27
-27 31 -27 153 0 205 -11 200 408 192 l312 -6 0 391 0 391 -336 3 -336 3 -24
30 c-22 28 -24 38 -24 156 0 132 3 141 50 173 23 15 95 16 858 14 l834 -3 24
-28z m-1789 -380 l28 -28 -3 -321 c-3 -349 -4 -358 -58 -378 -14 -6 -166 -10
-345 -10 l-319 0 0 -165 c0 -163 0 -166 -25 -190 -13 -14 -32 -25 -42 -25 -10
-1 -66 -1 -125 -1 -166 -1 -172 7 -175 221 l-3 155 -149 3 -149 3 -31 35 -31
35 0 125 c0 125 0 126 29 155 l29 29 516 0 516 0 0 156 c0 228 7 236 187 232
119 -3 123 -4 150 -31z m1784 -386 l29 -29 0 -892 c0 -978 3 -933 -60 -965
-20 -11 -60 -15 -135 -15 -98 0 -108 2 -130 24 -13 13 -26 39 -30 57 -3 19 -4
429 -3 912 l3 879 33 29 c32 28 34 29 148 29 114 0 116 0 145 -29z m-3616
-367 c45 -18 45 -22 45 -759 0 -632 -2 -700 -17 -725 -9 -16 -27 -33 -40 -39
-16 -8 -204 -11 -589 -11 l-564 0 -38 34 -37 34 -3 707 -2 706 29 30 29 29
585 0 c322 0 593 -3 602 -6z m715 -401 c50 -35 49 -27 50 -401 l0 -352 183 2
182 3 3 165 c3 164 3 165 30 192 31 32 32 32 174 30 103 -2 108 -3 133 -29 25
-27 25 -30 25 -195 l0 -168 151 0 151 0 35 -35 35 -35 -4 -126 -3 -126 -33
-29 -32 -29 -651 0 c-704 0 -686 -1 -723 54 -14 23 -16 78 -16 527 l0 502 36
33 35 34 107 0 c85 0 113 -4 132 -17z"/>
<path d="M3280 6741 l0 -308 254 -7 c139 -4 279 -5 310 -1 l56 7 0 309 0 309
-310 0 -310 0 0 -309z"/>
<path d="M6780 6740 l0 -310 228 0 c126 0 284 -3 350 -7 l122 -6 0 316 0 317
-350 0 -350 0 0 -310z"/>
<path d="M3280 3415 l0 -405 310 0 310 0 0 405 0 405 -310 0 -310 0 0 -405z"/>
</g>
</svg>
